# xmcd
#
# Track frame offsets: 
#        210
#        39943
#        55284
#        80993
#        103322
#        122506
#        151940
#        165500
#        185393
#        206446
#        225462
#        245829
#
# Disc length: 3540 seconds
#
# Revision: 0
# Processed by: cddbd v1.5.2PL0 Copyright (c) Steve Scherf et al.
# Submitted via: ExactAudioCopy v0.99pb3
#
DISCID=9a0dd20c
DTITLE=Johnny Dollar - My Baby Loves Me - Chicago Blues Session Vol 55
DYEAR=2001
DGENRE=Blues
TTITLE0=Call My Job
TTITLE1=I Like Your Style
TTITLE2=Doing My Own Thing
TTITLE3=Stop Doggin' Me
TTITLE4=My Baby Loves Me
TTITLE5=The Things I Used To Do
TTITLE6=That's The Way Love Is
TTITLE7=If Loving You Is Wrong (I Don't Want To Do Right)
TTITLE8=Take My Heart
TTITLE9=That's The The I Feel About CHA
TTITLE10=Scan Ius
TTITLE11=Funky Broadway
EXTD=
EXTT0=
EXTT1=
EXTT2=
EXTT3=
EXTT4=
EXTT5=
EXTT6=
EXTT7=
EXTT8=
EXTT9=
EXTT10=
EXTT11=
PLAYORDER=
